<svg width="83" height="52" viewBox="0 0 83 52" fill="none" xmlns="http://www.w3.org/2000/svg">
<path d="M16.9758 31.7947L9.58273 51.8207C9.51095 52.036 9.15206 52.036 9.0085 51.8207L0.108083 27.5598C0.0363056 27.3804 0.143965 27.2009 0.359298 27.2009H4.37885C4.52241 27.2009 4.63007 27.2727 4.66596 27.3804L9.29561 40.8746L12.4179 31.7947H16.9758Z" fill="white"/>
<path d="M16.9758 31.7947L9.58273 51.8207C9.51095 52.036 9.15206 52.036 9.0085 51.8207L0.108083 27.5598C0.0363056 27.3804 0.143965 27.2009 0.359298 27.2009H4.37885C4.52241 27.2009 4.63007 27.2727 4.66596 27.3804L9.29561 40.8746L12.4179 31.7947H16.9758Z" fill="white"/>
<path d="M29.2138 51.9642C29.0702 51.9642 28.9267 51.8206 28.9267 51.677V47.3345V43.961L22.7538 27.3444C22.682 27.0932 22.2514 27.0932 22.1796 27.3444L13.2074 51.5694C13.1356 51.7488 13.2433 51.9283 13.4945 51.9283H17.5499C17.6576 51.9283 17.8011 51.8565 17.837 51.7488L22.4667 37.9675L27.1322 51.7847C27.1681 51.8924 27.3117 51.9642 27.3835 51.9642H28.8908H29.2138Z" fill="white"/>
<path d="M39.5147 51.6771V47.3346H35.0286V27.5957C35.0286 27.3804 34.9209 27.165 34.7774 27.165H31.332C31.1885 27.165 31.0449 27.4163 31.0449 27.5957V43.9251V47.2987V51.6412C31.0449 51.7489 31.1885 51.9283 31.332 51.9283H35.0286H39.5147H39.8018C39.6582 51.9642 39.5147 51.8207 39.5147 51.6771Z" fill="white"/>
<path d="M50.1006 51.6771V47.3346H45.6145V27.5957C45.6145 27.3804 45.5068 27.165 45.3633 27.165H41.918C41.7744 27.165 41.6309 27.4163 41.6309 27.5957V43.9251V47.2987V51.6412C41.6309 51.7489 41.7744 51.9283 41.918 51.9283H45.6504H50.1006H50.3877C50.2442 51.9642 50.1006 51.8207 50.1006 51.6771Z" fill="white"/>
<path d="M82.0428 27.165H77.3773C77.3055 27.165 77.1261 27.2009 77.0902 27.2727L71.4556 35.563L65.1751 27.165H63.273H63.0218H52.3269C52.1475 27.165 52.0039 27.3086 52.0039 27.4522V51.6771C52.0039 51.7848 52.1475 51.9642 52.3269 51.9642H63.2371H63.5242C63.3807 51.9642 63.2371 51.8207 63.2371 51.713V47.3704H56.5259V41.8077H65.8929C66.0723 41.8077 66.2159 41.6641 66.2159 41.5206V37.5728C66.2159 37.4292 66.0723 37.2857 65.8929 37.2857H56.5977V31.687H63.2012L63.4524 31.9383L69.1588 40.3362V51.713C69.1588 51.8207 69.3023 52.0001 69.4818 52.0001H73.3578C73.5731 52.0001 73.6808 51.8565 73.6808 51.713V40.3362C76.516 36.1014 79.4588 31.8665 82.33 27.6675C82.4735 27.4163 82.3658 27.165 82.0428 27.165Z" fill="white"/>
<path d="M29.2493 20.9561C29.2493 23.1453 28.7469 24.7603 27.742 25.8011C26.7371 26.8419 25.2298 27.3802 23.1482 27.3802C21.8562 27.3802 20.636 27.0931 19.4876 26.5189V25.0115C20.7796 25.7293 21.9998 26.0882 23.1482 26.0882C26.2347 26.0882 27.7779 24.4732 27.7779 21.2073V19.8077H27.742C26.8448 21.3509 25.4451 22.1404 23.5789 22.1404C22.8611 22.1404 22.1792 21.9969 21.5691 21.7456C20.959 21.4944 20.4566 21.0997 20.0259 20.5972C19.5952 20.0948 19.2722 19.4847 19.021 18.7669C18.7698 18.0491 18.6621 17.2237 18.6621 16.3264C18.6621 15.3574 18.8057 14.4961 19.0569 13.6707C19.3081 12.8811 19.667 12.1992 20.1336 11.625C20.6001 11.0508 21.1743 10.6201 21.8203 10.2971C22.5022 9.97412 23.22 9.83057 24.0454 9.83057C25.6963 9.83057 26.9165 10.5125 27.7061 11.8403H27.742V10.0818H29.2134V20.9561H29.2493ZM27.7779 14.7114C27.7779 14.209 27.7061 13.7424 27.5267 13.3118C27.3472 12.8811 27.096 12.4863 26.773 12.1633C26.45 11.8403 26.0911 11.5891 25.6604 11.3738C25.2298 11.1943 24.7632 11.0867 24.2249 11.0867C23.6148 11.0867 23.0405 11.1943 22.574 11.4456C22.0715 11.6968 21.6409 12.0198 21.3179 12.4504C20.959 12.8811 20.7078 13.4194 20.5283 14.0296C20.3489 14.6397 20.2412 15.3574 20.2412 16.147C20.2412 16.8648 20.313 17.5108 20.4924 18.085C20.6719 18.6592 20.9231 19.1617 21.2461 19.5564C21.5691 19.9512 21.9639 20.2742 22.4304 20.4895C22.897 20.7049 23.3994 20.8125 23.9737 20.8125C24.5479 20.8125 25.0862 20.7049 25.5528 20.4895C26.0193 20.2742 26.45 19.9871 26.773 19.6282C27.096 19.2693 27.3831 18.8028 27.5625 18.3003C27.742 17.7979 27.8496 17.2596 27.8496 16.6853V14.7114H27.7779Z" fill="white"/>
<path d="M23.148 27.5955C21.8201 27.5955 20.564 27.3084 19.3796 26.6983L19.272 26.6265V24.6526L19.595 24.8321C20.8511 25.514 22.0354 25.8729 23.148 25.8729C26.1267 25.8729 27.5623 24.3296 27.5623 21.2073V20.4178C26.6292 21.6739 25.3013 22.3199 23.5786 22.3199C22.825 22.3199 22.1072 22.1763 21.4971 21.8892C20.8511 21.6021 20.3127 21.2073 19.8821 20.669C19.4514 20.1307 19.0925 19.4847 18.8413 18.7669C18.5901 18.0132 18.4824 17.1878 18.4824 16.2547C18.4824 15.2857 18.626 14.3526 18.8772 13.563C19.1284 12.7376 19.5232 12.0198 19.9898 11.4456C20.4922 10.8713 21.0664 10.4048 21.7483 10.0818C22.4302 9.75879 23.2197 9.57935 24.0811 9.57935C25.5884 9.57935 26.7727 10.1177 27.5623 11.1943V9.86646H29.4644V20.9561C29.4644 23.1812 28.9261 24.868 27.9212 25.9446C26.8804 27.0572 25.3013 27.5955 23.148 27.5955ZM19.7026 26.3753C20.7793 26.8778 21.9636 27.1649 23.148 27.1649C25.1577 27.1649 26.6651 26.6624 27.5982 25.6575C28.5672 24.6527 29.0337 23.0735 29.0337 20.9561V10.2971H27.993V12.0557H27.5982L27.5264 11.948C26.8086 10.656 25.6602 10.0459 24.0452 10.0459C23.2556 10.0459 22.5379 10.1895 21.8919 10.4766C21.2459 10.7637 20.7075 11.1943 20.2769 11.7327C19.8103 12.271 19.4873 12.9529 19.2361 13.7066C18.9849 14.4602 18.8772 15.3574 18.8772 16.2906C18.8772 17.1878 18.9849 17.9773 19.2361 18.6951C19.4514 19.377 19.7744 19.9871 20.2051 20.4537C20.5999 20.9202 21.1023 21.315 21.6765 21.5662C22.2507 21.8174 22.8968 21.961 23.5786 21.961C25.3731 21.961 26.6651 21.2432 27.5264 19.7359L27.5982 19.6282H27.993V21.2432C27.993 24.6168 26.378 26.3394 23.148 26.3394C22.0354 26.3394 20.887 26.0164 19.7026 25.4063V26.3753ZM23.9016 21.0638C23.3274 21.0638 22.7532 20.9561 22.2866 20.7049C21.8201 20.4537 21.3894 20.1307 21.0305 19.7C20.7075 19.2693 20.4204 18.7669 20.241 18.1568C20.0615 17.5467 19.9539 16.8648 19.9539 16.147C19.9539 15.3575 20.0615 14.6038 20.241 13.9937C20.4204 13.3477 20.7075 12.7735 21.1023 12.3428C21.4612 11.8762 21.9277 11.5173 22.4302 11.2661C22.9685 11.0149 23.5427 10.8713 24.1887 10.8713C24.7271 10.8713 25.2654 10.979 25.6961 11.1943C26.1626 11.4097 26.5574 11.6968 26.8804 12.0198C27.2034 12.3787 27.4905 12.7735 27.67 13.24C27.8494 13.7066 27.9571 14.209 27.9571 14.7115V16.7571C27.9571 17.3672 27.8494 17.9414 27.67 18.4439C27.4905 18.9822 27.2034 19.4488 26.8445 19.8077C26.4856 20.2024 26.055 20.5254 25.5525 20.7408C25.086 20.9561 24.5117 21.0638 23.9016 21.0638ZM24.2246 11.302C23.6504 11.302 23.1121 11.4097 22.6455 11.625C22.179 11.8403 21.7842 12.1633 21.4612 12.594C21.1382 13.0247 20.887 13.5271 20.7075 14.1013C20.5281 14.7114 20.4204 15.3933 20.4204 16.147C20.4204 16.8289 20.4922 17.4749 20.6716 18.0491C20.8511 18.5874 21.0664 19.0899 21.3894 19.4488C21.6765 19.8435 22.0713 20.1307 22.502 20.346C22.9326 20.5613 23.3992 20.669 23.9375 20.669C24.4759 20.669 24.9783 20.5613 25.4449 20.3819C25.8755 20.1665 26.2703 19.9153 26.5933 19.5564C26.9163 19.1976 27.1675 18.8028 27.347 18.3003C27.5264 17.8338 27.5982 17.2954 27.5982 16.7571V14.7115C27.5982 14.2449 27.5264 13.8142 27.347 13.3836C27.1675 12.9888 26.9522 12.594 26.6651 12.3069C26.378 11.9839 26.0191 11.7327 25.6243 11.5532C25.1577 11.3738 24.7271 11.302 24.2246 11.302Z" fill="white"/>
<path d="M42.7449 16.3265C42.7449 17.0442 42.8525 17.6902 43.032 18.2644C43.2114 18.8387 43.4627 19.3411 43.8215 19.7359C44.1445 20.1307 44.5752 20.4537 45.0418 20.6331C45.5083 20.8484 46.0825 20.9561 46.6927 20.9561C47.9846 20.9561 49.2049 20.4896 50.3533 19.5564V20.992C49.2408 21.7816 47.9129 22.2122 46.3697 22.2122C45.616 22.2122 44.8982 22.0687 44.2522 21.7815C43.6062 21.4944 43.1038 21.0997 42.6372 20.5972C42.2066 20.0589 41.8477 19.4129 41.6323 18.6592C41.3811 17.9056 41.2734 17.0083 41.2734 16.0393C41.2734 15.1421 41.417 14.3526 41.6682 13.5989C41.9194 12.8452 42.2783 12.1992 42.7449 11.6609C43.2114 11.1226 43.7498 10.6919 44.3958 10.3689C45.0418 10.0459 45.7237 9.90234 46.4773 9.90234C47.231 9.90234 47.877 10.0459 48.4512 10.2971C49.0254 10.5483 49.492 10.9431 49.8868 11.4456C50.2815 11.948 50.5686 12.5222 50.784 13.24C50.9993 13.9578 51.0711 14.7473 51.0711 15.6087V16.3265H42.7449ZM49.5996 15.0345C49.5638 13.8142 49.2766 12.8452 48.7383 12.1992C48.2 11.5173 47.4463 11.1943 46.4414 11.1943C45.939 11.1943 45.5083 11.2661 45.0777 11.4456C44.647 11.625 44.2881 11.8762 43.9651 12.1992C43.6421 12.5222 43.3909 12.9529 43.1756 13.4195C42.9602 13.886 42.8167 14.4243 42.7449 15.0345H49.5996Z" fill="white"/>
<path d="M46.333 22.4634C45.5435 22.4634 44.7898 22.3199 44.1438 22.0328C43.4978 21.7457 42.9236 21.315 42.457 20.7767C41.9905 20.2383 41.6316 19.5564 41.3804 18.7669C41.1292 17.9773 41.0215 17.0801 41.0215 16.0752C41.0215 15.178 41.165 14.3167 41.4163 13.563C41.7034 12.7735 42.0623 12.1275 42.5288 11.5532C42.9954 10.979 43.6055 10.5484 44.2515 10.2254C44.8975 9.90235 45.6511 9.7229 46.4407 9.7229C47.1944 9.7229 47.9121 9.86646 48.4864 10.1536C49.0965 10.4407 49.5989 10.8355 49.9937 11.3379C50.3885 11.8403 50.7115 12.4863 50.9268 13.2041C51.1421 13.9219 51.2498 14.7473 51.2498 15.6446V16.6136H42.9595C42.9954 17.2237 43.0671 17.7979 43.2107 18.2644C43.3901 18.8028 43.6414 19.2693 43.9285 19.6641C44.2515 20.023 44.6463 20.3101 45.0769 20.5254C45.5435 20.7408 46.0459 20.8126 46.6201 20.8126C47.8404 20.8126 49.0606 20.346 50.1731 19.4847L50.532 19.1976V21.2073L50.4602 21.2791C49.3477 22.0328 47.948 22.4634 46.333 22.4634ZM46.4766 10.1177C45.7588 10.1177 45.0769 10.2612 44.4668 10.5483C43.8567 10.8355 43.3184 11.2661 42.8877 11.7686C42.457 12.3069 42.0981 12.917 41.8469 13.6348C41.5957 14.3526 41.4521 15.1421 41.4521 16.0034C41.4521 16.9724 41.5598 17.8338 41.811 18.5516C42.0264 19.2693 42.3853 19.9153 42.78 20.4178C43.2107 20.9202 43.7131 21.315 44.3232 21.5662C44.9334 21.8174 45.6152 21.961 46.333 21.961C47.8045 21.961 49.0606 21.6021 50.1013 20.8484V20.023C49.0247 20.8125 47.8404 21.2073 46.656 21.2073C46.01 21.2073 45.4358 21.0997 44.9334 20.8843C44.4309 20.669 43.9644 20.346 43.6414 19.9153C43.2825 19.4847 42.9954 18.9822 42.8159 18.3721C42.6365 17.762 42.5288 17.116 42.5288 16.3623V16.147H50.855V15.6446C50.855 14.7832 50.7473 14.0296 50.5679 13.3477C50.3885 12.6658 50.1013 12.0916 49.7066 11.625C49.3477 11.1585 48.8811 10.7996 48.3428 10.5483C47.8045 10.2612 47.1944 10.1177 46.4766 10.1177ZM49.8142 15.2498H42.5647L42.6006 14.9986C42.6724 14.3885 42.8518 13.8142 43.0312 13.3118C43.2466 12.8093 43.5337 12.3787 43.8567 12.0198C44.1797 11.6609 44.5745 11.4097 45.041 11.1943C45.4717 11.0149 45.9741 10.9072 46.4766 10.9072C47.5174 10.9072 48.3428 11.2661 48.917 11.9839C49.4912 12.7017 49.7784 13.7066 49.8142 14.9627V15.2498ZM43.0312 14.8191H49.3477C49.3118 13.7425 49.0247 12.917 48.5581 12.3069C48.0557 11.6968 47.3738 11.3738 46.4407 11.3738C45.9741 11.3738 45.5435 11.4456 45.1846 11.625C44.7898 11.8045 44.4668 12.0198 44.1797 12.3428C43.8926 12.6658 43.6414 13.0606 43.426 13.4912C43.2466 13.9219 43.1389 14.3526 43.0312 14.8191Z" fill="white"/>
<path d="M51.4277 19.4847C51.6431 19.6641 51.8943 19.8077 52.1455 19.9153C52.3967 20.0589 52.6479 20.1665 52.9351 20.2383C53.1863 20.346 53.4734 20.4178 53.7246 20.4537C54.0117 20.4895 54.2629 20.5254 54.5142 20.5254C56.2009 20.5254 57.0623 19.9153 57.0623 18.6951C57.0623 18.408 56.9905 18.1568 56.8828 17.9773C56.7752 17.762 56.5957 17.5826 56.3804 17.4031C56.1651 17.2237 55.8779 17.0801 55.5908 16.9365C55.2678 16.793 54.9448 16.6494 54.5501 16.47C54.0117 16.2547 53.5811 16.0393 53.1863 15.824C52.7915 15.6087 52.5044 15.3574 52.2532 15.1062C52.002 14.855 51.8225 14.5679 51.7148 14.2808C51.6072 13.9937 51.5354 13.6348 51.5354 13.24C51.5354 12.7376 51.6431 12.3069 51.8584 11.948C52.0737 11.5532 52.3608 11.2302 52.7556 10.979C53.1145 10.7278 53.5452 10.5125 54.0476 10.3689C54.5501 10.2253 55.0525 10.1536 55.5908 10.1536C56.5598 10.1536 57.4212 10.333 58.1748 10.6919V12.1274C57.3135 11.5891 56.4163 11.3379 55.4114 11.3379C55.0525 11.3379 54.7295 11.3738 54.4424 11.4815C54.1553 11.5532 53.9041 11.6968 53.6887 11.8403C53.4734 11.9839 53.3298 12.1992 53.2222 12.4146C53.1145 12.6299 53.0427 12.8811 53.0427 13.1323C53.0427 13.4194 53.0786 13.6348 53.1863 13.8501C53.2581 14.0654 53.4016 14.2449 53.6169 14.3884C53.7964 14.5679 54.0476 14.7114 54.3347 14.855C54.6218 14.9986 55.0166 15.178 55.4473 15.3216C55.9856 15.5369 56.4881 15.7522 56.8828 15.9676C57.2776 16.1829 57.6006 16.3982 57.8877 16.6494C58.1389 16.9007 58.3543 17.1878 58.4619 17.4749C58.6055 17.762 58.6414 18.1209 58.6414 18.5157C58.6414 19.0181 58.5337 19.4488 58.3184 19.8435C58.103 20.2383 57.8159 20.5613 57.4571 20.8125C57.0982 21.0638 56.6316 21.2791 56.1292 21.4227C55.6267 21.5662 55.0884 21.638 54.4783 21.638C53.3298 21.638 52.3608 21.4227 51.5713 20.9561V19.4847H51.4277Z" fill="white"/>
<path d="M58.4986 17.4749C58.355 17.1519 58.1397 16.8289 57.8526 16.5777C57.5655 16.3264 57.2425 16.0752 56.8118 15.8599C56.417 15.6445 55.9146 15.4292 55.3762 15.2139C54.9456 15.0344 54.5867 14.8909 54.2996 14.7473C54.0125 14.6038 53.7971 14.4602 53.6177 14.3167C53.4382 14.1731 53.3306 14.0296 53.2588 13.8501C53.187 13.6707 53.1511 13.4553 53.1511 13.2041C53.1511 12.9888 53.187 12.7734 53.2947 12.594C53.4024 12.4146 53.5459 12.2351 53.7254 12.0916C53.9048 11.948 54.156 11.8403 54.4072 11.7686C54.6944 11.6968 54.9815 11.6609 55.3045 11.6609C56.2376 11.6609 57.1348 11.9121 57.9602 12.4146L58.2832 12.6299V10.656L58.1756 10.5842C57.4219 10.2253 56.5247 10.01 55.4839 10.01C54.9456 10.01 54.4072 10.0818 53.9048 10.2253C53.4024 10.3689 52.9358 10.5842 52.541 10.8713C52.1462 11.1584 51.8233 11.5173 51.6079 11.9121C51.3567 12.3069 51.249 12.8093 51.249 13.3118C51.249 13.7066 51.3208 14.1013 51.4285 14.4243C51.572 14.7473 51.7515 15.0703 52.0027 15.3215C52.2539 15.5728 52.5769 15.824 52.9717 16.0752C53.3665 16.2906 53.833 16.5059 54.3714 16.7212C54.7661 16.8648 55.125 17.0442 55.4121 17.1519C55.6992 17.2954 55.9505 17.439 56.1658 17.5826C56.3811 17.7261 56.5247 17.9055 56.6324 18.085C56.74 18.2644 56.7759 18.4798 56.7759 18.6951C56.7759 19.7718 56.0222 20.3101 54.4431 20.3101C54.2278 20.3101 53.9766 20.2742 53.6895 20.2383C53.4382 20.2024 53.187 20.1307 52.8999 20.023C52.6487 19.9512 52.3975 19.8077 52.1463 19.7C51.895 19.5923 51.6797 19.4488 51.4644 19.2693L51.1773 19.054C51.1773 19.0899 51.1414 19.0899 51.1055 19.1258V21.0997L51.2131 21.1714C52.0386 21.638 53.0435 21.8892 54.2278 21.8892C54.8379 21.8892 55.4121 21.8174 55.9146 21.6739C56.4529 21.5303 56.9195 21.315 57.3142 21.0279C57.709 20.7408 58.032 20.3819 58.2474 19.9871C58.4627 19.5564 58.6062 19.0899 58.6062 18.5515C58.7139 18.1927 58.6421 17.8338 58.4986 17.4749ZM57.9961 19.8435C57.8167 20.2024 57.5296 20.4895 57.1707 20.7408C56.8118 20.992 56.3811 21.1714 55.9146 21.315C55.4121 21.4585 54.9097 21.4944 54.3355 21.4944C53.2947 21.4944 52.3616 21.2791 51.6438 20.8843V19.8794C51.7515 19.9512 51.895 20.023 52.0386 20.0948C52.2898 20.2383 52.5769 20.346 52.8281 20.4537C53.1152 20.5613 53.4024 20.6331 53.6536 20.669C53.9407 20.7049 54.1919 20.7408 54.479 20.7408C56.74 20.7408 57.2425 19.6282 57.2425 18.6951C57.2425 18.3721 57.1707 18.085 57.0271 17.8697C56.8836 17.6543 56.7041 17.439 56.4529 17.2595C56.2017 17.0801 55.9505 16.9007 55.6275 16.7571C55.3045 16.6135 54.9456 16.47 54.5508 16.2906C54.0484 16.0752 53.5818 15.8958 53.2229 15.6804C52.864 15.4651 52.5769 15.2498 52.3257 14.9986C52.1104 14.7832 51.9309 14.4961 51.8232 14.2449C51.7156 13.9578 51.6438 13.6348 51.6438 13.2759C51.6438 12.8452 51.7515 12.4146 51.9309 12.0916C52.1463 11.7327 52.3975 11.4456 52.7564 11.1943C53.1152 10.9431 53.51 10.7637 53.9766 10.6201C54.4431 10.4766 54.9456 10.4048 55.448 10.4048C56.3452 10.4048 57.1348 10.5483 57.8167 10.8713V11.8045C57.0271 11.3738 56.1658 11.1584 55.2686 11.1584C54.9097 11.1584 54.5508 11.1943 54.2278 11.302C53.9048 11.4097 53.6536 11.5173 53.4024 11.6968C53.187 11.8762 52.9717 12.0916 52.864 12.3428C52.7205 12.594 52.6846 12.8811 52.6846 13.1682C52.6846 13.4553 52.7205 13.7424 52.8281 13.9578C52.9358 14.1731 53.0794 14.3884 53.2947 14.6038C53.51 14.7832 53.7612 14.9627 54.0842 15.1062C54.3714 15.2498 54.7661 15.4292 55.1968 15.6087C55.7351 15.824 56.2017 16.0393 56.5965 16.2547C56.9912 16.47 57.2784 16.6853 57.5296 16.9007C57.7808 17.116 57.9602 17.3672 58.0679 17.6543C58.1756 17.9414 58.2474 18.2644 58.2474 18.6233C58.2832 19.0899 58.1756 19.4847 57.9961 19.8435Z" fill="white"/>
<path d="M59.3242 21.5303V10.1536H60.7598V21.5303H59.3242Z" fill="white"/>
<path d="M60.9756 21.7457H59.1094V9.93823H60.9756V21.7457ZM59.54 21.315H60.5449V10.3689H59.54V21.315Z" fill="white"/>
<path d="M80.7505 21.5303V14.9627C80.7505 12.3787 79.8174 11.1226 77.9512 11.1226C77.4488 11.1226 76.9822 11.2302 76.5874 11.4097C76.1567 11.5891 75.7979 11.8762 75.4749 12.2351C75.1519 12.594 74.9365 12.9888 74.7571 13.4912C74.5776 13.9578 74.5059 14.4961 74.5059 15.0345V21.5303H73.0703V10.1536H74.5059V12.1275H74.5418C75.4031 10.6201 76.6592 9.90234 78.346 9.90234C79.6021 9.90234 80.5352 10.2971 81.1812 11.1226C81.8272 11.9121 82.1502 13.0965 82.1502 14.6038V21.5303H80.7505Z" fill="white"/>
<path d="M82.4007 21.7457H80.5345V14.9986C80.5345 12.5581 79.6731 11.3738 77.9505 11.3738C77.4839 11.3738 77.0532 11.4815 76.6585 11.6609C76.2637 11.8403 75.9048 12.0916 75.6177 12.4146C75.3306 12.7376 75.1153 13.1323 74.9358 13.5989C74.7564 14.0655 74.6846 14.532 74.6846 15.0703L74.6487 21.8892L72.8184 21.8174V10.01H74.6846V11.5532C75.5459 10.3689 76.7661 9.75879 78.3452 9.75879C79.6372 9.75879 80.678 10.1895 81.3599 11.0508C82.0418 11.8762 82.4007 13.0965 82.4007 14.6756V21.7457ZM80.9651 21.315H81.97V14.6038C81.97 13.1323 81.647 12.0198 81.0369 11.2302C80.4268 10.4766 79.5296 10.0818 78.3452 10.0818C76.7302 10.0818 75.51 10.7637 74.7205 12.1992L74.6487 12.3069H74.2539V10.333H73.249V21.2791H74.2539V14.9986C74.2539 14.4243 74.3616 13.886 74.541 13.3836C74.7205 12.8811 74.9717 12.4505 75.2947 12.0916C75.6177 11.7327 76.0125 11.4456 76.4431 11.2302C76.9097 11.0149 77.3762 10.9072 77.9146 10.9072C79.9243 10.9072 80.9292 12.271 80.9292 14.9627V21.315H80.9651Z" fill="white"/>
<path d="M72.1717 20.9561C72.1717 23.1453 71.6692 24.7603 70.7002 25.8011C69.6953 26.8419 68.188 27.3802 66.1065 27.3802C64.8145 27.3802 63.5942 27.0931 62.4458 26.5189V25.0474C63.7378 25.7652 64.958 26.1241 66.1065 26.1241C69.1929 26.1241 70.7002 24.5091 70.7002 21.2791V19.8794H70.6643C69.7671 21.4227 68.3675 22.1763 66.5371 22.1763C65.8193 22.1763 65.1375 22.0328 64.5632 21.7815C63.9531 21.5303 63.4507 21.1356 63.02 20.6331C62.5894 20.1307 62.2664 19.5206 62.0151 18.8028C61.7639 18.085 61.6562 17.2596 61.6562 16.3623C61.6562 15.3933 61.7998 14.532 62.051 13.7425C62.3022 12.9529 62.6611 12.271 63.1277 11.6968C63.5942 11.1226 64.1685 10.6919 64.8145 10.3689C65.4605 10.0459 66.2141 9.90234 67.0396 9.90234C68.6905 9.90234 69.9107 10.5842 70.6643 11.9121H70.7002V10.1536H72.1717V20.9561ZM70.7002 14.7473C70.7002 14.2449 70.6285 13.8142 70.449 13.3477C70.2696 12.917 70.0183 12.5222 69.7312 12.1992C69.4082 11.8762 69.0493 11.625 68.6187 11.4097C68.188 11.2302 67.7215 11.1226 67.1831 11.1226C66.573 11.1226 66.0347 11.2302 65.5322 11.4815C65.0298 11.7327 64.635 12.0557 64.2761 12.4863C63.9172 12.917 63.666 13.4553 63.4866 14.0654C63.3071 14.6756 63.1995 15.3933 63.1995 16.1829C63.1995 16.9007 63.2712 17.5467 63.4507 18.1209C63.6301 18.6951 63.8813 19.1975 64.2043 19.5923C64.5273 19.9871 64.9221 20.3101 65.3528 20.5254C65.8193 20.7408 66.3218 20.8484 66.8601 20.8484C67.4343 20.8484 67.9727 20.7408 68.4392 20.5254C68.9058 20.3101 69.3365 20.023 69.6595 19.6641C69.9825 19.3052 70.2696 18.8745 70.449 18.3721C70.6285 17.8697 70.7361 17.3313 70.7361 16.7571V14.7473H70.7002Z" fill="white"/>
<path d="M66.107 27.5955C64.7791 27.5955 63.523 27.3084 62.3745 26.6983L62.2668 26.6265V24.6885L62.5898 24.868C63.846 25.5499 65.0303 25.9087 66.1428 25.9087C69.0857 25.9087 70.5213 24.4014 70.5213 21.2791V20.4895C69.5882 21.7456 68.2603 22.3917 66.5376 22.3917C65.7839 22.3917 65.1021 22.2481 64.4561 21.961C63.846 21.6739 63.2717 21.2791 62.8411 20.7408C62.4104 20.2024 62.0515 19.5923 61.8003 18.8387C61.5491 18.085 61.4414 17.2596 61.4414 16.3264C61.4414 15.3574 61.585 14.4243 61.8362 13.6348C62.0874 12.8093 62.4822 12.1274 62.9487 11.5173C63.4153 10.9431 64.0254 10.4766 64.7073 10.1536C65.3892 9.83056 66.1787 9.68701 67.0401 9.68701C68.5474 9.68701 69.6958 10.2253 70.5213 11.2661V9.93823H72.4234V20.9561C72.4234 23.1812 71.9209 24.868 70.8802 25.9446C69.8035 27.0572 68.2244 27.5955 66.107 27.5955ZM62.6616 26.3753C63.7383 26.8778 64.8867 27.1649 66.107 27.1649C68.1167 27.1649 69.5882 26.6624 70.5213 25.6575C71.4544 24.6526 71.9568 23.0735 71.9568 20.9561V10.333H70.9161V12.0916H70.5213L70.4495 11.9839C69.7317 10.6919 68.5833 10.0818 67.0042 10.0818C66.2146 10.0818 65.4968 10.2253 64.8508 10.5125C64.2048 10.7996 63.6665 11.2302 63.2358 11.7686C62.8052 12.3069 62.4463 12.9888 62.1951 13.7424C61.9439 14.4961 61.8362 15.3574 61.8362 16.2906C61.8362 17.1878 61.9439 17.9773 62.1951 18.6592C62.4104 19.3411 62.7334 19.9512 63.1641 20.4178C63.5588 20.8843 64.0613 21.2791 64.6355 21.5303C65.2097 21.7815 65.8557 21.9251 66.5376 21.9251C68.3321 21.9251 69.6241 21.2073 70.4854 19.7L70.5572 19.5923H70.9519V21.2073C70.9519 24.5809 69.3369 26.2676 66.1428 26.2676C65.0662 26.2676 63.8818 25.9446 62.6975 25.3345V26.3753H62.6616ZM66.8247 21.0997C66.2505 21.0997 65.6763 20.992 65.2097 20.7408C64.7432 20.4895 64.3125 20.1665 63.9895 19.7359C63.6665 19.3052 63.3794 18.8028 63.2 18.1927C63.0205 17.5825 62.9129 16.9365 62.9129 16.1829C62.9129 15.3933 63.0205 14.6755 63.2 14.0295C63.3794 13.3836 63.6665 12.8093 64.0254 12.3787C64.3843 11.9121 64.8508 11.5532 65.3533 11.302C65.8557 11.0508 66.4658 10.9431 67.1118 10.9431C67.6502 10.9431 68.1526 11.0508 68.6192 11.2661C69.0857 11.4815 69.4805 11.7686 69.8035 12.0916C70.1265 12.4504 70.4136 12.8452 70.5931 13.3118C70.7725 13.7783 70.8802 14.2808 70.8802 14.7832V16.793C70.8802 17.4031 70.7725 17.9773 70.5931 18.4798C70.4136 19.0181 70.1265 19.4488 69.7676 19.8435C69.4087 20.2383 68.9781 20.5613 68.4756 20.7767C68.0091 20.992 67.4348 21.0997 66.8247 21.0997ZM67.1477 11.3379C66.5735 11.3379 66.0352 11.4456 65.5686 11.6609C65.1021 11.8762 64.7073 12.1992 64.3843 12.594C64.0613 12.9888 63.8101 13.5271 63.6306 14.1013C63.4512 14.7114 63.3435 15.3933 63.3435 16.147C63.3435 16.8289 63.4153 17.4749 63.5947 18.0491C63.7742 18.5874 63.9895 19.0899 64.3125 19.4488C64.5996 19.8435 64.9944 20.1307 65.3892 20.346C65.8198 20.5613 66.2864 20.669 66.8247 20.669C67.3631 20.669 67.8655 20.5613 68.3321 20.3819C68.7627 20.2024 69.1575 19.9153 69.4805 19.5564C69.8035 19.1975 70.0547 18.8028 70.2342 18.3362C70.4136 17.8697 70.4854 17.3313 70.4854 16.793V14.7832C70.4854 14.3167 70.4136 13.886 70.2342 13.4912C70.0547 13.0964 69.8394 12.7017 69.5523 12.4146C69.2652 12.0916 68.9063 11.8762 68.5115 11.6609C68.0808 11.4456 67.6502 11.3379 67.1477 11.3379Z" fill="white"/>
<path d="M14.678 21.8174C13.8526 21.8174 13.1348 21.6739 12.4529 21.4227C11.8069 21.1355 11.2327 20.7767 10.802 20.2742C10.3355 19.7718 9.97656 19.1617 9.76123 18.4798C9.51001 17.7979 9.40234 17.0083 9.40234 16.147C9.40234 15.2139 9.5459 14.3884 9.79712 13.6707C10.0483 12.9529 10.4072 12.3428 10.9097 11.8403C11.3762 11.3379 11.9504 10.9431 12.6323 10.6919C13.3142 10.4407 14.0679 10.2971 14.8933 10.2971C15.6829 10.2971 16.4007 10.4407 17.0467 10.6919C17.6927 10.9431 18.231 11.3379 18.6617 11.8403C19.0923 12.3428 19.4512 12.9529 19.7024 13.6348C19.9536 14.3167 20.0613 15.1421 20.0613 16.0752C20.0613 16.9366 19.9536 17.7261 19.7024 18.4439C19.4512 19.1617 19.0923 19.7718 18.6258 20.2742C18.1592 20.7767 17.6209 21.1714 16.939 21.4585C16.293 21.6739 15.5393 21.8174 14.678 21.8174ZM14.8216 11.4456C14.2114 11.4456 13.6731 11.5532 13.1707 11.7686C12.6682 11.9839 12.2734 12.271 11.9146 12.6658C11.5557 13.0606 11.3044 13.563 11.125 14.1372C10.9456 14.7114 10.8379 15.3574 10.8379 16.1111C10.8379 16.793 10.9456 17.439 11.125 17.9773C11.3044 18.5157 11.5916 19.0181 11.9146 19.4129C12.2734 19.8077 12.6682 20.0948 13.1707 20.3101C13.6731 20.5254 14.2114 20.6331 14.8216 20.6331C15.4317 20.6331 15.97 20.5254 16.4724 20.3101C16.939 20.0948 17.3338 19.8077 17.6927 19.4129C18.0157 19.0181 18.2669 18.5515 18.4463 17.9773C18.6258 17.4031 18.6975 16.7571 18.6975 16.0393C18.6975 14.5679 18.3745 13.4194 17.6927 12.6299C16.9749 11.8403 16.0418 11.4456 14.8216 11.4456Z" fill="white"/>
<path d="M14.678 22.0328C13.8167 22.0328 13.063 21.8892 12.3811 21.6021C11.6992 21.315 11.125 20.9202 10.6226 20.3819C10.156 19.8794 9.76124 19.2334 9.51001 18.5157C9.25879 17.7979 9.11523 17.0083 9.11523 16.147C9.11523 15.2139 9.25879 14.3526 9.51001 13.5989C9.76124 12.8452 10.156 12.1992 10.6585 11.6609C11.1609 11.1226 11.771 10.7278 12.4529 10.4407C13.1348 10.1536 13.9243 10.01 14.7857 10.01C15.6111 10.01 16.3648 10.1536 17.0108 10.4048C17.6927 10.6919 18.2669 11.0867 18.7334 11.5891C19.2 12.0916 19.5589 12.7376 19.8101 13.4912C20.0613 14.209 20.169 15.0703 20.169 15.9676C20.169 16.8648 20.0254 17.6543 19.7742 18.408C19.523 19.1258 19.1282 19.7718 18.6617 20.3101C18.1951 20.8484 17.585 21.2432 16.9031 21.5303C16.3289 21.8892 15.5393 22.0328 14.678 22.0328ZM14.8933 10.4766C14.1038 10.4766 13.3501 10.6201 12.7041 10.8713C12.0581 11.1226 11.5198 11.4815 11.0532 11.9839C10.5867 12.4504 10.2278 13.0606 9.97657 13.7424C9.72535 14.4243 9.61769 15.2498 9.61769 16.147C9.61769 16.9724 9.72535 17.7261 9.97657 18.408C10.2278 19.0899 10.5508 19.6641 10.9815 20.1306C11.4121 20.5972 11.9505 20.992 12.5606 21.2432C13.1707 21.4944 13.8884 21.638 14.678 21.638C15.4676 21.638 16.2212 21.4944 16.8313 21.2432C17.4773 20.992 18.0157 20.5972 18.4463 20.0948C18.877 19.5923 19.2359 19.0181 19.4512 18.3362C19.7024 17.6543 19.8101 16.9007 19.8101 16.0393C19.8101 15.178 19.7024 14.3526 19.4512 13.6707C19.2359 12.9888 18.877 12.4146 18.4822 11.948C18.0516 11.4814 17.5491 11.1226 16.939 10.8713C16.3648 10.6201 15.647 10.4766 14.8933 10.4766ZM14.7857 20.8484C14.1397 20.8484 13.5654 20.7408 13.063 20.5254C12.5606 20.3101 12.094 19.9871 11.7351 19.5564C11.3762 19.1258 11.0891 18.6233 10.9097 18.0491C10.7302 17.4749 10.6226 16.8289 10.6226 16.1111C10.6226 15.3574 10.7302 14.6756 10.9097 14.0654C11.0891 13.4553 11.3762 12.9529 11.771 12.5222C12.1299 12.0916 12.5965 11.7686 13.0989 11.5532C13.6013 11.3379 14.1756 11.2302 14.8216 11.2302C16.1136 11.2302 17.1184 11.6609 17.8362 12.4863C18.5181 13.3118 18.877 14.4961 18.877 16.0393C18.877 16.793 18.8052 17.439 18.6258 18.0491C18.4463 18.6592 18.1951 19.1617 17.8362 19.5564C17.4773 19.9871 17.0467 20.2742 16.5442 20.5254C16.0059 20.7408 15.4317 20.8484 14.7857 20.8484ZM14.8216 11.6609C14.2473 11.6609 13.709 11.7686 13.2783 11.948C12.8118 12.1274 12.417 12.4146 12.094 12.8093C11.771 13.1682 11.5198 13.6348 11.3403 14.209C11.1609 14.7473 11.0532 15.3933 11.0532 16.1111C11.0532 16.7571 11.1609 17.3672 11.3403 17.9055C11.5198 18.4439 11.771 18.8745 12.094 19.2693C12.417 19.6282 12.8118 19.9153 13.2783 20.1306C13.7449 20.346 14.2473 20.4178 14.8216 20.4178C15.3958 20.4178 15.9341 20.3101 16.3648 20.1306C16.7954 19.9512 17.1902 19.6641 17.5132 19.3052C17.8362 18.9463 18.0516 18.4798 18.231 17.9414C18.4104 17.4031 18.4822 16.7571 18.4822 16.0752C18.4822 14.6397 18.1592 13.563 17.5491 12.8093C16.8672 12.0198 15.97 11.6609 14.8216 11.6609Z" fill="white"/>
<path d="M12.7046 21.0639C9.40287 23.2531 4.73733 21.3869 4.73733 13.5631C4.73733 13.4554 4.73733 13.3119 4.73733 13.2042C6.53177 11.7687 7.96732 10.1537 8.9722 8.431C9.65409 7.31845 10.1206 6.17 10.3719 5.09333V5.05745C10.4436 4.69856 10.5154 4.33967 10.5513 3.98078C10.5513 3.87312 10.5513 3.76545 10.5513 3.65778C10.5872 3.11945 10.5513 2.58112 10.4436 2.11457C10.1206 0.679013 9.18754 -0.110541 8.11087 0.140681C6.35232 0.535458 5.02444 3.15534 4.37844 4.69856C3.553 6.67244 2.94288 9.00522 2.69166 11.2662C2.69166 11.3739 2.65577 11.4457 2.65577 11.5533C2.04566 12.0199 1.36378 12.4505 0.646005 12.8453C0.251228 13.0965 0 13.599 0 14.1732C0 14.3527 0.0358954 14.5321 0.107673 14.7115C0.358895 15.4293 0.969002 15.7523 1.50733 15.4293C1.86622 15.214 2.22511 14.9986 2.54811 14.7833C2.61989 16.0394 2.83522 17.2238 3.15822 18.3004C3.84011 20.4538 5.20388 22.0687 6.92655 22.6789C7.46488 22.8583 8.00321 22.966 8.54154 22.966C10.0489 22.8942 11.4485 22.2841 12.7046 21.0639ZM6.31643 5.99055C6.78299 4.878 7.28543 4.05256 7.6802 3.55012C7.71609 3.47834 7.78788 3.44245 7.82377 3.40656C7.85966 3.37067 7.89554 3.33478 7.93143 3.33478C7.93143 3.33478 7.93143 3.33478 7.96732 3.33478C8.00321 3.33478 8.0032 3.29889 8.03909 3.29889C8.43387 3.01178 8.57743 3.40656 8.43387 4.12434C8.29032 4.84211 7.82376 6.27767 6.4241 8.07211C6.1011 8.50278 5.74221 8.93344 5.34743 9.32822C5.56276 8.07211 5.92166 6.92366 6.31643 5.99055Z" fill="white"/>
<path d="M34.4529 20.7049C36.4548 20.7049 38.0777 18.8249 38.0777 16.5059C38.0777 14.1868 36.4548 12.3069 34.4529 12.3069C32.451 12.3069 30.8281 14.1868 30.8281 16.5059C30.8281 18.8249 32.451 20.7049 34.4529 20.7049Z" fill="white"/>
<path d="M40.7337 10.2613C40.6978 9.0052 40.626 7.85676 40.5184 6.99543C40.4825 6.34943 40.3748 5.70343 40.2313 5.12921C40.2313 5.09332 40.1954 5.02154 40.1954 4.98566C40.1954 4.94977 40.1954 4.94977 40.1954 4.94977C39.657 2.9041 38.4727 1.28911 36.8218 0.499554C36.3194 0.248333 35.781 0.104776 35.2068 0.0329985C33.9507 -0.110557 32.6228 0.212444 31.4026 1.03789C34.2737 -0.720666 38.042 1.50444 38.2574 9.86654L38.2933 10.7996C37.9703 10.5484 37.6114 10.369 37.2166 10.1895C36.4629 9.86653 35.6016 9.72297 34.6685 9.72297C33.6636 9.72297 32.7664 9.86653 31.9768 10.1895C31.1873 10.5125 30.5054 10.9791 29.9312 11.5533C29.3569 12.1634 28.9263 12.8812 28.6033 13.7425C28.2803 14.6039 28.1367 15.5729 28.1367 16.6495C28.1367 17.6544 28.2803 18.5516 28.5674 19.3771C28.8545 20.2025 29.2852 20.9203 29.8235 21.4945C30.3618 22.0687 31.0437 22.5353 31.7974 22.8583C32.551 23.1813 33.4483 23.3607 34.4173 23.3607C35.4221 23.3607 36.2835 23.1813 37.073 22.8583C37.8626 22.5353 38.5086 22.0687 39.0828 21.4586C39.6211 20.8485 40.0518 20.1307 40.3389 19.3053C40.626 18.4798 40.7696 17.5467 40.7696 16.506C40.7696 16.3983 40.7696 16.3265 40.7696 16.2189C40.8055 15.6446 40.8055 15.1063 40.8055 14.6397C40.8055 13.9937 40.7696 11.984 40.7337 10.2613ZM38.9034 18.6952C38.688 19.3771 38.4009 19.9513 38.0061 20.4178C37.6473 20.8485 37.2166 21.1715 36.7142 21.4227C36.6424 21.4586 36.5706 21.4945 36.4629 21.5304C35.8887 21.7816 35.2427 21.8893 34.5249 21.8893C33.8072 21.8893 33.1612 21.7816 32.5869 21.5304C32.2281 21.351 31.8692 21.1715 31.582 20.9203C31.4026 20.7767 31.2232 20.5973 31.0437 20.382C30.6489 19.9154 30.3259 19.3412 30.1106 18.6952C29.8953 18.0492 29.7876 17.3314 29.7876 16.5418C29.7876 15.7164 29.8953 14.9627 30.1106 14.3167C30.3259 13.6349 30.6489 13.0248 31.0796 12.5582C31.2591 12.3788 31.4385 12.1993 31.6179 12.0199C31.905 11.7686 32.2639 11.5533 32.6228 11.4098C33.197 11.1585 33.843 11.0509 34.5608 11.0509C35.6016 11.0509 36.4629 11.2662 37.1448 11.7327C37.4678 11.9481 37.7908 12.1993 38.042 12.5223C38.8316 13.4554 39.2264 14.7833 39.2264 16.4701C39.1905 17.2955 39.0828 18.0492 38.9034 18.6952Z" fill="white"/>
</svg>
