<svg width="84" height="52" viewBox="0 0 84 52" fill="none" xmlns="http://www.w3.org/2000/svg">
<path d="M17.7766 31.7947L10.3835 51.8207C10.3117 52.036 9.95284 52.036 9.80929 51.8207L0.908864 27.5598C0.837087 27.3804 0.944747 27.2009 1.16008 27.2009H5.17963C5.32319 27.2009 5.43085 27.2727 5.46674 27.3804L10.0964 40.8746L13.2187 31.7947H17.7766Z" fill="#BE1E2D"/>
<path d="M17.7766 31.7947L10.3835 51.8207C10.3117 52.036 9.95284 52.036 9.80929 51.8207L0.908864 27.5598C0.837087 27.3804 0.944747 27.2009 1.16008 27.2009H5.17963C5.32319 27.2009 5.43085 27.2727 5.46674 27.3804L10.0964 40.8746L13.2187 31.7947H17.7766Z" fill="#BE1E2D"/>
<path d="M30.0165 51.9642C29.873 51.9642 29.7294 51.8206 29.7294 51.677V47.3345V43.961L23.5565 27.3444C23.4847 27.0932 23.0541 27.0932 22.9823 27.3444L14.0101 51.5694C13.9383 51.7488 14.046 51.9283 14.2972 51.9283H18.3526C18.4603 51.9283 18.6039 51.8565 18.6398 51.7488L23.2694 37.9675L27.935 51.7847C27.9709 51.8924 28.1144 51.9642 28.1862 51.9642H29.6935H30.0165Z" fill="#BE1E2D"/>
<path d="M40.3135 51.6771V47.3346H35.8274V27.5957C35.8274 27.3804 35.7197 27.165 35.5762 27.165H32.1309C31.9873 27.165 31.8438 27.4163 31.8438 27.5957V43.9251V47.2987V51.6412C31.8438 51.7489 31.9873 51.9283 32.1309 51.9283H35.8274H40.3135H40.6006C40.4571 51.9642 40.3135 51.8207 40.3135 51.6771Z" fill="#BE1E2D"/>
<path d="M50.9034 51.6771V47.3346H46.4173V27.5957C46.4173 27.3804 46.3096 27.165 46.166 27.165H42.7207C42.5772 27.165 42.4336 27.4163 42.4336 27.5957V43.9251V47.2987V51.6412C42.4336 51.7489 42.5772 51.9283 42.7207 51.9283H46.4531H50.9034H51.1905C51.0469 51.9642 50.9034 51.8207 50.9034 51.6771Z" fill="#BE1E2D"/>
<path d="M82.8436 27.165H78.1781C78.1063 27.165 77.9269 27.2009 77.891 27.2727L72.2564 35.563L65.9759 27.165H64.0738H63.8226H53.1277C52.9483 27.165 52.8047 27.3086 52.8047 27.4522V51.6771C52.8047 51.7848 52.9483 51.9642 53.1277 51.9642H64.0379H64.325C64.1814 51.9642 64.0379 51.8207 64.0379 51.713V47.3704H57.3267V41.8077H66.6937C66.8731 41.8077 67.0167 41.6641 67.0167 41.5206V37.5728C67.0167 37.4292 66.8731 37.2857 66.6937 37.2857H57.3985V31.687H64.002L64.2532 31.9383L69.9595 40.3362V51.713C69.9595 51.8207 70.1031 52.0001 70.2825 52.0001H74.1585C74.3739 52.0001 74.4815 51.8565 74.4815 51.713V40.3362C77.3168 36.1014 80.2596 31.8665 83.1307 27.6675C83.2743 27.4163 83.1666 27.165 82.8436 27.165Z" fill="#BE1E2D"/>
<path d="M30.052 20.9561C30.052 23.1453 29.5496 24.7603 28.5447 25.8011C27.5398 26.8419 26.0325 27.3802 23.9509 27.3802C22.6589 27.3802 21.4387 27.0931 20.2903 26.5189V25.0115C21.5823 25.7293 22.8025 26.0882 23.9509 26.0882C27.0374 26.0882 28.5806 24.4732 28.5806 21.2073V19.8077H28.5447C27.6475 21.3509 26.2478 22.1404 24.3816 22.1404C23.6638 22.1404 22.982 21.9969 22.3718 21.7456C21.7617 21.4944 21.2593 21.0997 20.8286 20.5972C20.398 20.0948 20.075 19.4847 19.8237 18.7669C19.5725 18.0491 19.4648 17.2237 19.4648 16.3264C19.4648 15.3574 19.6084 14.4961 19.8596 13.6707C20.1108 12.8811 20.4697 12.1992 20.9363 11.625C21.4028 11.0508 21.9771 10.6201 22.6231 10.2971C23.305 9.97412 24.0227 9.83057 24.8482 9.83057C26.4991 9.83057 27.7193 10.5125 28.5088 11.8403H28.5447V10.0818H30.0162V20.9561H30.052ZM28.5806 14.7114C28.5806 14.209 28.5088 13.7424 28.3294 13.3118C28.1499 12.8811 27.8987 12.4863 27.5757 12.1633C27.2527 11.8403 26.8938 11.5891 26.4632 11.3738C26.0325 11.1943 25.5659 11.0867 25.0276 11.0867C24.4175 11.0867 23.8433 11.1943 23.3767 11.4456C22.8743 11.6968 22.4436 12.0198 22.1206 12.4504C21.7617 12.8811 21.5105 13.4194 21.3311 14.0296C21.1516 14.6397 21.0439 15.3574 21.0439 16.147C21.0439 16.8648 21.1157 17.5108 21.2952 18.085C21.4746 18.6592 21.7258 19.1617 22.0488 19.5564C22.3718 19.9512 22.7666 20.2742 23.2332 20.4895C23.6997 20.7049 24.2022 20.8125 24.7764 20.8125C25.3506 20.8125 25.8889 20.7049 26.3555 20.4895C26.8221 20.2742 27.2527 19.9871 27.5757 19.6282C27.8987 19.2693 28.1858 18.8028 28.3653 18.3003C28.5447 17.7979 28.6524 17.2596 28.6524 16.6853V14.7114H28.5806Z" fill="#BE1E2D"/>
<path d="M23.9507 27.5955C22.6228 27.5955 21.3667 27.3084 20.1824 26.6983L20.0747 26.6265V24.6526L20.3977 24.8321C21.6538 25.514 22.8381 25.8729 23.9507 25.8729C26.9295 25.8729 28.365 24.3296 28.365 21.2073V20.4178C27.4319 21.6739 26.104 22.3199 24.3814 22.3199C23.6277 22.3199 22.9099 22.1763 22.2998 21.8892C21.6538 21.6021 21.1155 21.2073 20.6848 20.669C20.2542 20.1307 19.8953 19.4847 19.644 18.7669C19.3928 18.0132 19.2852 17.1878 19.2852 16.2547C19.2852 15.2857 19.4287 14.3526 19.6799 13.563C19.9312 12.7376 20.3259 12.0198 20.7925 11.4456C21.2949 10.8713 21.8692 10.4048 22.551 10.0818C23.2329 9.75879 24.0225 9.57935 24.8838 9.57935C26.3911 9.57935 27.5755 10.1177 28.365 11.1943V9.86646H30.2671V20.9561C30.2671 23.1812 29.7288 24.868 28.7239 25.9446C27.6831 27.0572 26.104 27.5955 23.9507 27.5955ZM20.5054 26.3753C21.582 26.8778 22.7664 27.1649 23.9507 27.1649C25.9605 27.1649 27.4678 26.6624 28.4009 25.6575C29.3699 24.6527 29.8365 23.0735 29.8365 20.9561V10.2971H28.7957V12.0557H28.4009L28.3291 11.948C27.6114 10.656 26.4629 10.0459 24.8479 10.0459C24.0584 10.0459 23.3406 10.1895 22.6946 10.4766C22.0486 10.7637 21.5103 11.1943 21.0796 11.7327C20.613 12.271 20.29 12.9529 20.0388 13.7066C19.7876 14.4602 19.6799 15.3574 19.6799 16.2906C19.6799 17.1878 19.7876 17.9773 20.0388 18.6951C20.2542 19.377 20.5772 19.9871 21.0078 20.4537C21.4026 20.9202 21.905 21.315 22.4793 21.5662C23.0535 21.8174 23.6995 21.961 24.3814 21.961C26.1758 21.961 27.4678 21.2432 28.3291 19.7359L28.4009 19.6282H28.7957V21.2432C28.7957 24.6168 27.1807 26.3394 23.9507 26.3394C22.8381 26.3394 21.6897 26.0164 20.5054 25.4063V26.3753ZM24.7044 21.0638C24.1301 21.0638 23.5559 20.9561 23.0894 20.7049C22.6228 20.4537 22.1922 20.1307 21.8333 19.7C21.5103 19.2693 21.2232 18.7669 21.0437 18.1568C20.8643 17.5467 20.7566 16.8648 20.7566 16.147C20.7566 15.3575 20.8643 14.6038 21.0437 13.9937C21.2232 13.3477 21.5103 12.7735 21.905 12.3428C22.2639 11.8762 22.7305 11.5173 23.2329 11.2661C23.7713 11.0149 24.3455 10.8713 24.9915 10.8713C25.5298 10.8713 26.0681 10.979 26.4988 11.1943C26.9654 11.4097 27.3601 11.6968 27.6831 12.0198C28.0061 12.3787 28.2933 12.7735 28.4727 13.24C28.6521 13.7066 28.7598 14.209 28.7598 14.7115V16.7571C28.7598 17.3672 28.6521 17.9414 28.4727 18.4439C28.2933 18.9822 28.0061 19.4488 27.6473 19.8077C27.2884 20.2024 26.8577 20.5254 26.3553 20.7408C25.8887 20.9561 25.3145 21.0638 24.7044 21.0638ZM25.0274 11.302C24.4531 11.302 23.9148 11.4097 23.4483 11.625C22.9817 11.8403 22.5869 12.1633 22.2639 12.594C21.9409 13.0247 21.6897 13.5271 21.5103 14.1013C21.3308 14.7114 21.2232 15.3933 21.2232 16.147C21.2232 16.8289 21.2949 17.4749 21.4744 18.0491C21.6538 18.5874 21.8692 19.0899 22.1922 19.4488C22.4793 19.8435 22.874 20.1307 23.3047 20.346C23.7354 20.5613 24.2019 20.669 24.7403 20.669C25.2786 20.669 25.781 20.5613 26.2476 20.3819C26.6783 20.1665 27.073 19.9153 27.396 19.5564C27.719 19.1976 27.9703 18.8028 28.1497 18.3003C28.3291 17.8338 28.4009 17.2954 28.4009 16.7571V14.7115C28.4009 14.2449 28.3291 13.8142 28.1497 13.3836C27.9703 12.9888 27.7549 12.594 27.4678 12.3069C27.1807 11.9839 26.8218 11.7327 26.427 11.5532C25.9605 11.3738 25.5298 11.302 25.0274 11.302Z" fill="#BE1E2D"/>
<path d="M43.5418 16.3265C43.5418 17.0442 43.6494 17.6902 43.8289 18.2644C44.0083 18.8387 44.2595 19.3411 44.6184 19.7359C44.9414 20.1307 45.3721 20.4537 45.8386 20.6331C46.3052 20.8484 46.8794 20.9561 47.4895 20.9561C48.7815 20.9561 50.0017 20.4896 51.1502 19.5564V20.992C50.0376 21.7816 48.7097 22.2122 47.1665 22.2122C46.4129 22.2122 45.6951 22.0687 45.0491 21.7815C44.4031 21.4944 43.9006 21.0997 43.4341 20.5972C43.0034 20.0589 42.6445 19.4129 42.4292 18.6592C42.178 17.9056 42.0703 17.0083 42.0703 16.0393C42.0703 15.1421 42.2139 14.3526 42.4651 13.5989C42.7163 12.8452 43.0752 12.1992 43.5418 11.6609C44.0083 11.1226 44.5466 10.6919 45.1926 10.3689C45.8386 10.0459 46.5205 9.90234 47.2742 9.90234C48.0279 9.90234 48.6739 10.0459 49.2481 10.2971C49.8223 10.5483 50.2889 10.9431 50.6836 11.4456C51.0784 11.948 51.3655 12.5222 51.5808 13.24C51.7962 13.9578 51.868 14.7473 51.868 15.6087V16.3265H43.5418ZM50.3965 15.0345C50.3606 13.8142 50.0735 12.8452 49.5352 12.1992C48.9969 11.5173 48.2432 11.1943 47.2383 11.1943C46.7359 11.1943 46.3052 11.2661 45.8745 11.4456C45.4439 11.625 45.085 11.8762 44.762 12.1992C44.439 12.5222 44.1878 12.9529 43.9724 13.4195C43.7571 13.886 43.6135 14.4243 43.5418 15.0345H50.3965Z" fill="#BE1E2D"/>
<path d="M47.1319 22.4634C46.3423 22.4634 45.5886 22.3199 44.9426 22.0328C44.2966 21.7457 43.7224 21.315 43.2559 20.7767C42.7893 20.2383 42.4304 19.5564 42.1792 18.7669C41.928 17.9773 41.8203 17.0801 41.8203 16.0752C41.8203 15.178 41.9639 14.3167 42.2151 13.563C42.5022 12.7735 42.8611 12.1275 43.3276 11.5532C43.7942 10.979 44.4043 10.5484 45.0503 10.2254C45.6963 9.90235 46.45 9.7229 47.2395 9.7229C47.9932 9.7229 48.711 9.86646 49.2852 10.1536C49.8953 10.4407 50.3977 10.8355 50.7925 11.3379C51.1873 11.8403 51.5103 12.4863 51.7256 13.2041C51.9409 13.9219 52.0486 14.7473 52.0486 15.6446V16.6136H43.7583C43.7942 17.2237 43.866 17.7979 44.0095 18.2644C44.189 18.8028 44.4402 19.2693 44.7273 19.6641C45.0503 20.023 45.4451 20.3101 45.8757 20.5254C46.3423 20.7408 46.8447 20.8126 47.419 20.8126C48.6392 20.8126 49.8594 20.346 50.972 19.4847L51.3308 19.1976V21.2073L51.2591 21.2791C50.1465 22.0328 48.7468 22.4634 47.1319 22.4634ZM47.2754 10.1177C46.5576 10.1177 45.8757 10.2612 45.2656 10.5483C44.6555 10.8355 44.1172 11.2661 43.6865 11.7686C43.2559 12.3069 42.897 12.917 42.6458 13.6348C42.3945 14.3526 42.251 15.1421 42.251 16.0034C42.251 16.9724 42.3586 17.8338 42.6099 18.5516C42.8252 19.2693 43.1841 19.9153 43.5789 20.4178C44.0095 20.9202 44.512 21.315 45.1221 21.5662C45.7322 21.8174 46.4141 21.961 47.1319 21.961C48.6033 21.961 49.8594 21.6021 50.9002 20.8484V20.023C49.8235 20.8125 48.6392 21.2073 47.4548 21.2073C46.8089 21.2073 46.2346 21.0997 45.7322 20.8843C45.2297 20.669 44.7632 20.346 44.4402 19.9153C44.0813 19.4847 43.7942 18.9822 43.6148 18.3721C43.4353 17.762 43.3276 17.116 43.3276 16.3623V16.147H51.6538V15.6446C51.6538 14.7832 51.5462 14.0296 51.3667 13.3477C51.1873 12.6658 50.9002 12.0916 50.5054 11.625C50.1465 11.1585 49.68 10.7996 49.1416 10.5483C48.6033 10.2612 47.9932 10.1177 47.2754 10.1177ZM50.6131 15.2498H43.3635L43.3994 14.9986C43.4712 14.3885 43.6506 13.8142 43.8301 13.3118C44.0454 12.8093 44.3325 12.3787 44.6555 12.0198C44.9785 11.6609 45.3733 11.4097 45.8399 11.1943C46.2705 11.0149 46.773 10.9072 47.2754 10.9072C48.3162 10.9072 49.1416 11.2661 49.7159 11.9839C50.2901 12.7017 50.5772 13.7066 50.6131 14.9627V15.2498ZM43.8301 14.8191H50.1465C50.1106 13.7425 49.8235 12.917 49.357 12.3069C48.8545 11.6968 48.1726 11.3738 47.2395 11.3738C46.773 11.3738 46.3423 11.4456 45.9834 11.625C45.5886 11.8045 45.2656 12.0198 44.9785 12.3428C44.6914 12.6658 44.4402 13.0606 44.2249 13.4912C44.0454 13.9219 43.9377 14.3526 43.8301 14.8191Z" fill="#BE1E2D"/>
<path d="M52.2305 19.4847C52.4458 19.6641 52.697 19.8077 52.9482 19.9153C53.1995 20.0589 53.4507 20.1665 53.7378 20.2383C53.989 20.346 54.2761 20.4178 54.5274 20.4537C54.8145 20.4895 55.0657 20.5254 55.3169 20.5254C57.0037 20.5254 57.865 19.9153 57.865 18.6951C57.865 18.408 57.7932 18.1568 57.6856 17.9773C57.5779 17.762 57.3985 17.5826 57.1831 17.4031C56.9678 17.2237 56.6807 17.0801 56.3936 16.9365C56.0706 16.793 55.7476 16.6494 55.3528 16.47C54.8145 16.2547 54.3838 16.0393 53.989 15.824C53.5942 15.6087 53.3071 15.3574 53.0559 15.1062C52.8047 14.855 52.6252 14.5679 52.5176 14.2808C52.4099 13.9937 52.3381 13.6348 52.3381 13.24C52.3381 12.7376 52.4458 12.3069 52.6611 11.948C52.8765 11.5532 53.1636 11.2302 53.5583 10.979C53.9172 10.7278 54.3479 10.5125 54.8503 10.3689C55.3528 10.2253 55.8552 10.1536 56.3936 10.1536C57.3626 10.1536 58.2239 10.333 58.9776 10.6919V12.1274C58.1162 11.5891 57.219 11.3379 56.2141 11.3379C55.8552 11.3379 55.5322 11.3738 55.2451 11.4815C54.958 11.5532 54.7068 11.6968 54.4915 11.8403C54.2761 11.9839 54.1326 12.1992 54.0249 12.4146C53.9172 12.6299 53.8455 12.8811 53.8455 13.1323C53.8455 13.4194 53.8814 13.6348 53.989 13.8501C54.0608 14.0654 54.2043 14.2449 54.4197 14.3884C54.5991 14.5679 54.8503 14.7114 55.1375 14.855C55.4246 14.9986 55.8193 15.178 56.25 15.3216C56.7883 15.5369 57.2908 15.7522 57.6856 15.9676C58.0803 16.1829 58.4033 16.3982 58.6905 16.6494C58.9417 16.9007 59.157 17.1878 59.2647 17.4749C59.4082 17.762 59.4441 18.1209 59.4441 18.5157C59.4441 19.0181 59.3364 19.4488 59.1211 19.8435C58.9058 20.2383 58.6187 20.5613 58.2598 20.8125C57.9009 21.0638 57.4343 21.2791 56.9319 21.4227C56.4295 21.5662 55.8911 21.638 55.281 21.638C54.1326 21.638 53.1636 21.4227 52.374 20.9561V19.4847H52.2305Z" fill="#BE1E2D"/>
<path d="M59.2993 17.4749C59.1558 17.1519 58.9405 16.8289 58.6534 16.5777C58.3662 16.3264 58.0432 16.0752 57.6126 15.8599C57.2178 15.6445 56.7154 15.4292 56.177 15.2139C55.7464 15.0344 55.3875 14.8909 55.1004 14.7473C54.8133 14.6038 54.5979 14.4602 54.4185 14.3167C54.239 14.1731 54.1314 14.0296 54.0596 13.8501C53.9878 13.6707 53.9519 13.4553 53.9519 13.2041C53.9519 12.9888 53.9878 12.7734 54.0955 12.594C54.2031 12.4146 54.3467 12.2351 54.5261 12.0916C54.7056 11.948 54.9568 11.8403 55.208 11.7686C55.4951 11.6968 55.7822 11.6609 56.1052 11.6609C57.0384 11.6609 57.9356 11.9121 58.761 12.4146L59.084 12.6299V10.656L58.9764 10.5842C58.2227 10.2253 57.3255 10.01 56.2847 10.01C55.7464 10.01 55.208 10.0818 54.7056 10.2253C54.2031 10.3689 53.7366 10.5842 53.3418 10.8713C52.947 11.1584 52.624 11.5173 52.4087 11.9121C52.1575 12.3069 52.0498 12.8093 52.0498 13.3118C52.0498 13.7066 52.1216 14.1013 52.2293 14.4243C52.3728 14.7473 52.5522 15.0703 52.8035 15.3215C53.0547 15.5728 53.3777 15.824 53.7725 16.0752C54.1672 16.2906 54.6338 16.5059 55.1721 16.7212C55.5669 16.8648 55.9258 17.0442 56.2129 17.1519C56.5 17.2954 56.7512 17.439 56.9666 17.5826C57.1819 17.7261 57.3255 17.9055 57.4331 18.085C57.5408 18.2644 57.5767 18.4798 57.5767 18.6951C57.5767 19.7718 56.823 20.3101 55.2439 20.3101C55.0286 20.3101 54.7774 20.2742 54.4902 20.2383C54.239 20.2024 53.9878 20.1307 53.7007 20.023C53.4495 19.9512 53.1983 19.8077 52.947 19.7C52.6958 19.5923 52.4805 19.4488 52.2651 19.2693L51.978 19.054C51.978 19.0899 51.9421 19.0899 51.9062 19.1258V21.0997L52.0139 21.1714C52.8394 21.638 53.8443 21.8892 55.0286 21.8892C55.6387 21.8892 56.2129 21.8174 56.7154 21.6739C57.2537 21.5303 57.7202 21.315 58.115 21.0279C58.5098 20.7408 58.8328 20.3819 59.0481 19.9871C59.2635 19.5564 59.407 19.0899 59.407 18.5515C59.5147 18.1927 59.4429 17.8338 59.2993 17.4749ZM58.7969 19.8435C58.6175 20.2024 58.3304 20.4895 57.9715 20.7408C57.6126 20.992 57.1819 21.1714 56.7154 21.315C56.2129 21.4585 55.7105 21.4944 55.1362 21.4944C54.0955 21.4944 53.1624 21.2791 52.4446 20.8843V19.8794C52.5522 19.9512 52.6958 20.023 52.8394 20.0948C53.0906 20.2383 53.3777 20.346 53.6289 20.4537C53.916 20.5613 54.2031 20.6331 54.4544 20.669C54.7415 20.7049 54.9927 20.7408 55.2798 20.7408C57.5408 20.7408 58.0432 19.6282 58.0432 18.6951C58.0432 18.3721 57.9715 18.085 57.8279 17.8697C57.6843 17.6543 57.5049 17.439 57.2537 17.2595C57.0025 17.0801 56.7512 16.9007 56.4282 16.7571C56.1052 16.6135 55.7464 16.47 55.3516 16.2906C54.8491 16.0752 54.3826 15.8958 54.0237 15.6804C53.6648 15.4651 53.3777 15.2498 53.1265 14.9986C52.9111 14.7832 52.7317 14.4961 52.624 14.2449C52.5164 13.9578 52.4446 13.6348 52.4446 13.2759C52.4446 12.8452 52.5523 12.4146 52.7317 12.0916C52.947 11.7327 53.1982 11.4456 53.5571 11.1943C53.916 10.9431 54.3108 10.7637 54.7774 10.6201C55.2439 10.4766 55.7464 10.4048 56.2488 10.4048C57.146 10.4048 57.9356 10.5483 58.6175 10.8713V11.8045C57.8279 11.3738 56.9666 11.1584 56.0694 11.1584C55.7105 11.1584 55.3516 11.1943 55.0286 11.302C54.7056 11.4097 54.4544 11.5173 54.2031 11.6968C53.9878 11.8762 53.7725 12.0916 53.6648 12.3428C53.5213 12.594 53.4854 12.8811 53.4854 13.1682C53.4854 13.4553 53.5213 13.7424 53.6289 13.9578C53.7366 14.1731 53.8801 14.3884 54.0955 14.6038C54.3108 14.7832 54.562 14.9627 54.885 15.1062C55.1721 15.2498 55.5669 15.4292 55.9976 15.6087C56.5359 15.824 57.0025 16.0393 57.3972 16.2547C57.792 16.47 58.0791 16.6853 58.3304 16.9007C58.5816 17.116 58.761 17.3672 58.8687 17.6543C58.9764 17.9414 59.0481 18.2644 59.0481 18.6233C59.084 19.0899 58.9764 19.4847 58.7969 19.8435Z" fill="#BE1E2D"/>
<path d="M60.125 21.5303V10.1536H61.5606V21.5303H60.125Z" fill="#BE1E2D"/>
<path d="M61.7764 21.7457H59.9102V9.93823H61.7764V21.7457ZM60.3408 21.315H61.3457V10.3689H60.3408V21.315Z" fill="#BE1E2D"/>
<path d="M81.5513 21.5303V14.9627C81.5513 12.3787 80.6182 11.1226 78.752 11.1226C78.2495 11.1226 77.783 11.2302 77.3882 11.4097C76.9575 11.5891 76.5986 11.8762 76.2756 12.2351C75.9526 12.594 75.7373 12.9888 75.5579 13.4912C75.3784 13.9578 75.3066 14.4961 75.3066 15.0345V21.5303H73.8711V10.1536H75.3066V12.1275H75.3425C76.2039 10.6201 77.46 9.90234 79.1468 9.90234C80.4029 9.90234 81.336 10.2971 81.982 11.1226C82.628 11.9121 82.951 13.0965 82.951 14.6038V21.5303H81.5513Z" fill="#BE1E2D"/>
<path d="M83.2034 21.7457H81.3372V14.9986C81.3372 12.5581 80.4759 11.3738 78.7532 11.3738C78.2866 11.3738 77.856 11.4815 77.4612 11.6609C77.0664 11.8403 76.7075 12.0916 76.4204 12.4146C76.1333 12.7376 75.918 13.1323 75.7385 13.5989C75.5591 14.0655 75.4873 14.532 75.4873 15.0703L75.4514 21.8892L73.6211 21.8174V10.01H75.4873V11.5532C76.3486 10.3689 77.5689 9.75879 79.148 9.75879C80.44 9.75879 81.4808 10.1895 82.1626 11.0508C82.8445 11.8762 83.2034 13.0965 83.2034 14.6756V21.7457ZM81.7679 21.315H82.7727V14.6038C82.7727 13.1323 82.4498 12.0198 81.8396 11.2302C81.2295 10.4766 80.3323 10.0818 79.148 10.0818C77.533 10.0818 76.3128 10.7637 75.5232 12.1992L75.4514 12.3069H75.0566V10.333H74.0518V21.2791H75.0566V14.9986C75.0566 14.4243 75.1643 13.886 75.3438 13.3836C75.5232 12.8811 75.7744 12.4505 76.0974 12.0916C76.4204 11.7327 76.8152 11.4456 77.2459 11.2302C77.7124 11.0149 78.179 10.9072 78.7173 10.9072C80.7271 10.9072 81.732 12.271 81.732 14.9627V21.315H81.7679Z" fill="#BE1E2D"/>
<path d="M72.9725 20.9561C72.9725 23.1453 72.47 24.7603 71.501 25.8011C70.4961 26.8419 68.9888 27.3802 66.9072 27.3802C65.6152 27.3802 64.395 27.0931 63.2466 26.5189V25.0474C64.5386 25.7652 65.7588 26.1241 66.9072 26.1241C69.9937 26.1241 71.501 24.5091 71.501 21.2791V19.8794H71.4651C70.5679 21.4227 69.1682 22.1763 67.3379 22.1763C66.6201 22.1763 65.9382 22.0328 65.364 21.7815C64.7539 21.5303 64.2515 21.1356 63.8208 20.6331C63.3901 20.1307 63.0671 19.5206 62.8159 18.8028C62.5647 18.085 62.457 17.2596 62.457 16.3623C62.457 15.3933 62.6006 14.532 62.8518 13.7425C63.103 12.9529 63.4619 12.271 63.9285 11.6968C64.395 11.1226 64.9692 10.6919 65.6152 10.3689C66.2612 10.0459 67.0149 9.90234 67.8404 9.90234C69.4912 9.90234 70.7115 10.5842 71.4651 11.9121H71.501V10.1536H72.9725V20.9561ZM71.501 14.7473C71.501 14.2449 71.4292 13.8142 71.2498 13.3477C71.0703 12.917 70.8191 12.5222 70.532 12.1992C70.209 11.8762 69.8501 11.625 69.4195 11.4097C68.9888 11.2302 68.5222 11.1226 67.9839 11.1226C67.3738 11.1226 66.8355 11.2302 66.333 11.4815C65.8306 11.7327 65.4358 12.0557 65.0769 12.4863C64.718 12.917 64.4668 13.4553 64.2874 14.0654C64.1079 14.6756 64.0002 15.3933 64.0002 16.1829C64.0002 16.9007 64.072 17.5467 64.2515 18.1209C64.4309 18.6951 64.6821 19.1975 65.0051 19.5923C65.3281 19.9871 65.7229 20.3101 66.1536 20.5254C66.6201 20.7408 67.1226 20.8484 67.6609 20.8484C68.2351 20.8484 68.7735 20.7408 69.24 20.5254C69.7066 20.3101 70.1372 20.023 70.4602 19.6641C70.7832 19.3052 71.0703 18.8745 71.2498 18.3721C71.4292 17.8697 71.5369 17.3313 71.5369 16.7571V14.7473H71.501Z" fill="#BE1E2D"/>
<path d="M66.9077 27.5955C65.5798 27.5955 64.3237 27.3084 63.1753 26.6983L63.0676 26.6265V24.6885L63.3906 24.868C64.6467 25.5499 65.8311 25.9087 66.9436 25.9087C69.8865 25.9087 71.3221 24.4014 71.3221 21.2791V20.4895C70.3889 21.7456 69.0611 22.3917 67.3384 22.3917C66.5847 22.3917 65.9028 22.2481 65.2568 21.961C64.6467 21.6739 64.0725 21.2791 63.6418 20.7408C63.2112 20.2024 62.8523 19.5923 62.6011 18.8387C62.3499 18.085 62.2422 17.2596 62.2422 16.3264C62.2422 15.3574 62.3857 14.4243 62.637 13.6348C62.8882 12.8093 63.283 12.1274 63.7495 11.5173C64.2161 10.9431 64.8262 10.4766 65.5081 10.1536C66.19 9.83056 66.9795 9.68701 67.8408 9.68701C69.3482 9.68701 70.4966 10.2253 71.3221 11.2661V9.93823H73.2242V20.9561C73.2242 23.1812 72.7217 24.868 71.6809 25.9446C70.6043 27.0572 69.0252 27.5955 66.9077 27.5955ZM63.4624 26.3753C64.5391 26.8778 65.6875 27.1649 66.9077 27.1649C68.9175 27.1649 70.3889 26.6624 71.3221 25.6575C72.2552 24.6526 72.7576 23.0735 72.7576 20.9561V10.333H71.7168V12.0916H71.3221L71.2503 11.9839C70.5325 10.6919 69.3841 10.0818 67.805 10.0818C67.0154 10.0818 66.2976 10.2253 65.6516 10.5125C65.0056 10.7996 64.4673 11.2302 64.0366 11.7686C63.606 12.3069 63.2471 12.9888 62.9959 13.7424C62.7446 14.4961 62.637 15.3574 62.637 16.2906C62.637 17.1878 62.7446 17.9773 62.9959 18.6592C63.2112 19.3411 63.5342 19.9512 63.9648 20.4178C64.3596 20.8843 64.8621 21.2791 65.4363 21.5303C66.0105 21.7815 66.6565 21.9251 67.3384 21.9251C69.1328 21.9251 70.4248 21.2073 71.2862 19.7L71.3579 19.5923H71.7527V21.2073C71.7527 24.5809 70.1377 26.2676 66.9436 26.2676C65.867 26.2676 64.6826 25.9446 63.4983 25.3345V26.3753H63.4624ZM67.6255 21.0997C67.0513 21.0997 66.4771 20.992 66.0105 20.7408C65.544 20.4895 65.1133 20.1665 64.7903 19.7359C64.4673 19.3052 64.1802 18.8028 64.0007 18.1927C63.8213 17.5825 63.7136 16.9365 63.7136 16.1829C63.7136 15.3933 63.8213 14.6755 64.0007 14.0295C64.1802 13.3836 64.4673 12.8093 64.8262 12.3787C65.1851 11.9121 65.6516 11.5532 66.1541 11.302C66.6565 11.0508 67.2666 10.9431 67.9126 10.9431C68.4509 10.9431 68.9534 11.0508 69.42 11.2661C69.8865 11.4815 70.2813 11.7686 70.6043 12.0916C70.9273 12.4504 71.2144 12.8452 71.3938 13.3118C71.5733 13.7783 71.6809 14.2808 71.6809 14.7832V16.793C71.6809 17.4031 71.5733 17.9773 71.3938 18.4798C71.2144 19.0181 70.9273 19.4488 70.5684 19.8435C70.2095 20.2383 69.7788 20.5613 69.2764 20.7767C68.8098 20.992 68.2356 21.0997 67.6255 21.0997ZM67.9485 11.3379C67.3743 11.3379 66.836 11.4456 66.3694 11.6609C65.9028 11.8762 65.5081 12.1992 65.1851 12.594C64.8621 12.9888 64.6109 13.5271 64.4314 14.1013C64.252 14.7114 64.1443 15.3933 64.1443 16.147C64.1443 16.8289 64.2161 17.4749 64.3955 18.0491C64.575 18.5874 64.7903 19.0899 65.1133 19.4488C65.4004 19.8435 65.7952 20.1307 66.19 20.346C66.6206 20.5613 67.0872 20.669 67.6255 20.669C68.1638 20.669 68.6663 20.5613 69.1328 20.3819C69.5635 20.2024 69.9583 19.9153 70.2813 19.5564C70.6043 19.1975 70.8555 18.8028 71.0349 18.3362C71.2144 17.8697 71.2862 17.3313 71.2862 16.793V14.7832C71.2862 14.3167 71.2144 13.886 71.0349 13.4912C70.8555 13.0964 70.6402 12.7017 70.3531 12.4146C70.066 12.0916 69.7071 11.8762 69.3123 11.6609C68.8816 11.4456 68.451 11.3379 67.9485 11.3379Z" fill="#BE1E2D"/>
<path d="M15.4827 21.8174C14.6572 21.8174 13.9395 21.6739 13.2576 21.4227C12.6116 21.1355 12.0374 20.7767 11.6067 20.2742C11.1401 19.7718 10.7813 19.1617 10.5659 18.4798C10.3147 17.7979 10.207 17.0083 10.207 16.147C10.207 15.2139 10.3506 14.3884 10.6018 13.6707C10.853 12.9529 11.2119 12.3428 11.7144 11.8403C12.1809 11.3379 12.7551 10.9431 13.437 10.6919C14.1189 10.4407 14.8726 10.2971 15.698 10.2971C16.4876 10.2971 17.2053 10.4407 17.8513 10.6919C18.4973 10.9431 19.0357 11.3379 19.4663 11.8403C19.897 12.3428 20.2559 12.9529 20.5071 13.6348C20.7583 14.3167 20.866 15.1421 20.866 16.0752C20.866 16.9366 20.7583 17.7261 20.5071 18.4439C20.2559 19.1617 19.897 19.7718 19.4305 20.2742C18.9639 20.7767 18.4256 21.1714 17.7437 21.4585C17.0977 21.6739 16.344 21.8174 15.4827 21.8174ZM15.6262 11.4456C15.0161 11.4456 14.4778 11.5532 13.9754 11.7686C13.4729 11.9839 13.0781 12.271 12.7192 12.6658C12.3604 13.0606 12.1091 13.563 11.9297 14.1372C11.7502 14.7114 11.6426 15.3574 11.6426 16.1111C11.6426 16.793 11.7502 17.439 11.9297 17.9773C12.1091 18.5157 12.3962 19.0181 12.7192 19.4129C13.0781 19.8077 13.4729 20.0948 13.9754 20.3101C14.4778 20.5254 15.0161 20.6331 15.6262 20.6331C16.2364 20.6331 16.7747 20.5254 17.2771 20.3101C17.7437 20.0948 18.1385 19.8077 18.4973 19.4129C18.8203 19.0181 19.0716 18.5515 19.251 17.9773C19.4305 17.4031 19.5022 16.7571 19.5022 16.0393C19.5022 14.5679 19.1792 13.4194 18.4973 12.6299C17.7796 11.8403 16.8465 11.4456 15.6262 11.4456Z" fill="#BE1E2D"/>
<path d="M15.4807 22.0328C14.6194 22.0328 13.8657 21.8892 13.1839 21.6021C12.502 21.315 11.9277 20.9202 11.4253 20.3819C10.9587 19.8794 10.564 19.2334 10.3127 18.5157C10.0615 17.7979 9.91797 17.0083 9.91797 16.147C9.91797 15.2139 10.0615 14.3526 10.3127 13.5989C10.564 12.8452 10.9588 12.1992 11.4612 11.6609C11.9636 11.1226 12.5737 10.7278 13.2556 10.4407C13.9375 10.1536 14.7271 10.01 15.5884 10.01C16.4139 10.01 17.1675 10.1536 17.8135 10.4048C18.4954 10.6919 19.0696 11.0867 19.5362 11.5891C20.0027 12.0916 20.3616 12.7376 20.6128 13.4912C20.8641 14.209 20.9717 15.0703 20.9717 15.9676C20.9717 16.8648 20.8282 17.6543 20.577 18.408C20.3257 19.1258 19.931 19.7718 19.4644 20.3101C18.9978 20.8484 18.3877 21.2432 17.7058 21.5303C17.1316 21.8892 16.3421 22.0328 15.4807 22.0328ZM15.6961 10.4766C14.9065 10.4766 14.1528 10.6201 13.5069 10.8713C12.8609 11.1226 12.3225 11.4815 11.856 11.9839C11.3894 12.4504 11.0305 13.0606 10.7793 13.7424C10.5281 14.4243 10.4204 15.2498 10.4204 16.147C10.4204 16.9724 10.5281 17.7261 10.7793 18.408C11.0305 19.0899 11.3535 19.6641 11.7842 20.1306C12.2149 20.5972 12.7532 20.992 13.3633 21.2432C13.9734 21.4944 14.6912 21.638 15.4807 21.638C16.2703 21.638 17.024 21.4944 17.6341 21.2432C18.2801 20.992 18.8184 20.5972 19.2491 20.0948C19.6797 19.5923 20.0386 19.0181 20.254 18.3362C20.5052 17.6543 20.6128 16.9007 20.6128 16.0393C20.6128 15.178 20.5052 14.3526 20.254 13.6707C20.0386 12.9888 19.6797 12.4146 19.285 11.948C18.8543 11.4814 18.3518 11.1226 17.7417 10.8713C17.1675 10.6201 16.4497 10.4766 15.6961 10.4766ZM15.5884 20.8484C14.9424 20.8484 14.3682 20.7408 13.8657 20.5254C13.3633 20.3101 12.8967 19.9871 12.5379 19.5564C12.179 19.1258 11.8919 18.6233 11.7124 18.0491C11.533 17.4749 11.4253 16.8289 11.4253 16.1111C11.4253 15.3574 11.533 14.6756 11.7124 14.0654C11.8919 13.4553 12.179 12.9529 12.5738 12.5222C12.9326 12.0916 13.3992 11.7686 13.9016 11.5532C14.4041 11.3379 14.9783 11.2302 15.6243 11.2302C16.9163 11.2302 17.9212 11.6609 18.639 12.4863C19.3208 13.3118 19.6797 14.4961 19.6797 16.0393C19.6797 16.793 19.6079 17.439 19.4285 18.0491C19.2491 18.6592 18.9978 19.1617 18.639 19.5564C18.2801 19.9871 17.8494 20.2742 17.347 20.5254C16.8086 20.7408 16.2344 20.8484 15.5884 20.8484ZM15.6243 11.6609C15.0501 11.6609 14.5117 11.7686 14.0811 11.948C13.6145 12.1274 13.2197 12.4146 12.8967 12.8093C12.5737 13.1682 12.3225 13.6348 12.1431 14.209C11.9636 14.7473 11.856 15.3933 11.856 16.1111C11.856 16.7571 11.9636 17.3672 12.1431 17.9055C12.3225 18.4439 12.5737 18.8745 12.8967 19.2693C13.2197 19.6282 13.6145 19.9153 14.0811 20.1306C14.5476 20.346 15.0501 20.4178 15.6243 20.4178C16.1985 20.4178 16.7368 20.3101 17.1675 20.1306C17.5982 19.9512 17.993 19.6641 18.316 19.3052C18.639 18.9463 18.8543 18.4798 19.0337 17.9414C19.2132 17.4031 19.285 16.7571 19.285 16.0752C19.285 14.6397 18.962 13.563 18.3518 12.8093C17.67 12.0198 16.7727 11.6609 15.6243 11.6609Z" fill="#BE1E2D"/>
<path d="M13.5054 21.0639C10.2036 23.2531 5.53811 21.3869 5.53811 13.5631C5.53811 13.4554 5.53811 13.3119 5.53811 13.2042C7.33255 11.7687 8.7681 10.1537 9.77299 8.431C10.4549 7.31845 10.9214 6.17 11.1726 5.09333V5.05745C11.2444 4.69856 11.3162 4.33967 11.3521 3.98078C11.3521 3.87312 11.3521 3.76545 11.3521 3.65778C11.388 3.11945 11.3521 2.58112 11.2444 2.11457C10.9214 0.679013 9.98832 -0.110541 8.91166 0.140681C7.1531 0.535458 5.82522 3.15534 5.17922 4.69856C4.35378 6.67244 3.74366 9.00522 3.49244 11.2662C3.49244 11.3739 3.45655 11.4457 3.45655 11.5533C2.84644 12.0199 2.16456 12.4505 1.44679 12.8453C1.05201 13.0965 0.800781 13.599 0.800781 14.1732C0.800781 14.3527 0.836677 14.5321 0.908454 14.7115C1.15968 15.4293 1.76978 15.7523 2.30812 15.4293C2.667 15.214 3.02589 14.9986 3.34889 14.7833C3.42067 16.0394 3.636 17.2238 3.959 18.3004C4.64089 20.4538 6.00467 22.0687 7.72733 22.6789C8.26566 22.8583 8.80399 22.966 9.34233 22.966C10.8497 22.8942 12.2493 22.2841 13.5054 21.0639ZM7.11721 5.99055C7.58377 4.878 8.08621 4.05256 8.48099 3.55012C8.51687 3.47834 8.58866 3.44245 8.62455 3.40656C8.66044 3.37067 8.69632 3.33478 8.73221 3.33478C8.73221 3.33478 8.73221 3.33478 8.7681 3.33478C8.80399 3.33478 8.80398 3.29889 8.83987 3.29889C9.23465 3.01178 9.37821 3.40656 9.23465 4.12434C9.0911 4.84211 8.62454 6.27767 7.22488 8.07211C6.90188 8.50278 6.54299 8.93344 6.14821 9.32822C6.36355 8.07211 6.72244 6.92366 7.11721 5.99055Z" fill="#BE1E2D"/>
<path d="M35.2537 20.7049C37.2556 20.7049 38.8785 18.8249 38.8785 16.5059C38.8785 14.1868 37.2556 12.3069 35.2537 12.3069C33.2518 12.3069 31.6289 14.1868 31.6289 16.5059C31.6289 18.8249 33.2518 20.7049 35.2537 20.7049Z" fill="#BE1E2D"/>
<path d="M41.5345 10.2613C41.4986 9.0052 41.4268 7.85676 41.3191 6.99543C41.2833 6.34943 41.1756 5.70343 41.032 5.12921C41.032 5.09332 40.9961 5.02154 40.9961 4.98566C40.9961 4.94977 40.9961 4.94977 40.9961 4.94977C40.4578 2.9041 39.2735 1.28911 37.6226 0.499554C37.1202 0.248333 36.5818 0.104776 36.0076 0.0329985C34.7515 -0.110557 33.4236 0.212444 32.2034 1.03789C35.0745 -0.720666 38.8428 1.50444 39.0582 9.86654L39.094 10.7996C38.771 10.5484 38.4122 10.369 38.0174 10.1895C37.2637 9.86653 36.4024 9.72297 35.4693 9.72297C34.4644 9.72297 33.5672 9.86653 32.7776 10.1895C31.9881 10.5125 31.3062 10.9791 30.7319 11.5533C30.1577 12.1634 29.7271 12.8812 29.4041 13.7425C29.0811 14.6039 28.9375 15.5729 28.9375 16.6495C28.9375 17.6544 29.0811 18.5516 29.3682 19.3771C29.6553 20.2025 30.0859 20.9203 30.6243 21.4945C31.1626 22.0687 31.8445 22.5353 32.5982 22.8583C33.3518 23.1813 34.249 23.3607 35.218 23.3607C36.2229 23.3607 37.0843 23.1813 37.8738 22.8583C38.6634 22.5353 39.3094 22.0687 39.8836 21.4586C40.4219 20.8485 40.8526 20.1307 41.1397 19.3053C41.4268 18.4798 41.5704 17.5467 41.5704 16.506C41.5704 16.3983 41.5704 16.3265 41.5704 16.2189C41.6063 15.6446 41.6063 15.1063 41.6063 14.6397C41.6063 13.9937 41.5704 11.984 41.5345 10.2613ZM39.7041 18.6952C39.4888 19.3771 39.2017 19.9513 38.8069 20.4178C38.448 20.8485 38.0174 21.1715 37.5149 21.4227C37.4432 21.4586 37.3714 21.4945 37.2637 21.5304C36.6895 21.7816 36.0435 21.8893 35.3257 21.8893C34.6079 21.8893 33.9619 21.7816 33.3877 21.5304C33.0288 21.351 32.6699 21.1715 32.3828 20.9203C32.2034 20.7767 32.0239 20.5973 31.8445 20.382C31.4497 19.9154 31.1267 19.3412 30.9114 18.6952C30.6961 18.0492 30.5884 17.3314 30.5884 16.5418C30.5884 15.7164 30.6961 14.9627 30.9114 14.3167C31.1267 13.6349 31.4497 13.0248 31.8804 12.5582C32.0598 12.3788 32.2393 12.1993 32.4187 12.0199C32.7058 11.7686 33.0647 11.5533 33.4236 11.4098C33.9978 11.1585 34.6438 11.0509 35.3616 11.0509C36.4024 11.0509 37.2637 11.2662 37.9456 11.7327C38.2686 11.9481 38.5916 12.1993 38.8428 12.5223C39.6324 13.4554 40.0272 14.7833 40.0272 16.4701C39.9913 17.2955 39.8836 18.0492 39.7041 18.6952Z" fill="#BE1E2D"/>
</svg>
